# Blender v2.78 (sub 0) OBJ File: 'missile.blend'
# www.blender.org
o Missile_Cylinder
v 0.000000 -3.000000 -0.426253
v 0.000000 2.887789 -0.540133
v 0.163120 -3.000000 -0.393806
v 0.206700 2.887789 -0.499018
v 0.301406 -3.000000 -0.301406
v 0.381932 2.887789 -0.381932
v 0.393806 -3.000000 -0.163120
v 0.499018 2.887789 -0.206700
v 0.426253 -3.000000 0.000000
v 0.540133 2.887789 0.000000
v 0.393806 -3.000000 0.163120
v 0.499018 2.887789 0.206700
v 0.301406 -3.000000 0.301406
v 0.163120 -3.000000 0.393806
v 0.000000 -3.000000 0.426253
v -0.163120 -3.000000 0.393806
v -0.301406 -3.000000 0.301406
v -0.393806 -3.000000 0.163120
v -0.499018 2.887789 0.206700
v -0.426253 -3.000000 0.000000
v -0.540133 2.887789 0.000000
v -0.393806 -3.000000 -0.163120
v -0.499018 2.887789 -0.206700
v -0.301406 -3.000000 -0.301406
v -0.381932 2.887789 -0.381932
v -0.163120 -3.000000 -0.393806
v -0.206700 2.887789 -0.499018
v 0.000000 4.571408 -0.105375
v 0.000000 3.564965 -0.499018
v 0.040325 4.571408 -0.097354
v 0.146159 4.110881 -0.352859
v 0.190966 3.564965 -0.461033
v 0.074511 4.571408 -0.074511
v 0.270067 4.110881 -0.270067
v 0.352859 3.564965 -0.352859
v 0.097354 4.571408 -0.040325
v 0.352859 4.110881 -0.146159
v 0.461033 3.564965 -0.190966
v 0.105375 4.571408 0.000000
v 0.381932 4.110881 0.000000
v 0.499018 3.564965 0.000000
v 0.097354 4.571408 0.040325
v 0.352859 4.110881 0.146159
v 0.461033 3.564965 0.190966
v 0.074511 4.571408 0.074511
v 0.270067 4.110881 0.270067
v 0.352859 3.564965 0.352859
v 0.381932 2.887789 0.381932
v 0.040325 4.571408 0.097354
v 0.146159 4.110881 0.352859
v 0.190966 3.564965 0.461033
v 0.206700 2.887789 0.499018
v -0.000000 4.571408 0.105375
v -0.000000 4.110881 0.381932
v -0.000000 3.564965 0.499018
v -0.000000 2.887789 0.540134
v -0.000000 4.603741 0.000000
v -0.040325 4.571408 0.097354
v -0.146159 4.110881 0.352859
v -0.190966 3.564965 0.461033
v -0.206700 2.887789 0.499018
v -0.074511 4.571408 0.074511
v -0.270067 4.110881 0.270067
v -0.352859 3.564965 0.352859
v -0.381932 2.887789 0.381932
v -0.097354 4.571408 0.040325
v -0.352859 4.110881 0.146159
v -0.461033 3.564965 0.190966
v -0.105375 4.571408 0.000000
v -0.381932 4.110881 -0.000000
v -0.499018 3.564965 -0.000000
v -0.097354 4.571408 -0.040325
v -0.352859 4.110881 -0.146159
v -0.461033 3.564965 -0.190966
v -0.074511 4.571408 -0.074511
v -0.270067 4.110881 -0.270067
v -0.352859 3.564965 -0.352859
v -0.040325 4.571408 -0.097354
v -0.146159 4.110881 -0.352859
v -0.190966 3.564965 -0.461033
v 0.000000 4.110881 -0.381932
v 0.000000 1.082498 -0.540133
v 0.206700 1.082498 -0.499018
v 0.381932 1.082498 -0.381932
v 0.499018 1.082498 -0.206700
v 0.540133 1.082498 0.000000
v 0.499018 1.082498 0.206700
v -0.499018 1.082498 0.206700
v -0.540133 1.082498 0.000000
v -0.499018 1.082498 -0.206700
v -0.381932 1.082498 -0.381932
v -0.206700 1.082498 -0.499018
v 0.381932 1.082498 0.381932
v 0.206700 1.082498 0.499018
v -0.000000 1.082498 0.540134
v -0.206700 1.082498 0.499018
v -0.381932 1.082498 0.381932
v -0.000000 -3.434531 -1.167452
v 0.446764 -3.434531 -1.078585
v 0.206700 1.082498 -0.499018
v 0.540133 1.082498 0.000000
v 1.167452 -3.434531 0.000000
v 1.078585 -3.434531 0.446764
v 0.499018 1.082498 0.206700
v 0.000000 -3.434531 1.167452
v -0.446764 -3.434531 1.078585
v -0.540133 1.082498 0.000000
v -1.167452 -3.434531 0.000000
v -1.078584 -3.434531 -0.446765
v -0.499018 1.082498 -0.206700
v -0.000000 1.082498 0.540134
v -0.206700 1.082498 0.499018
v 0.000000 1.082498 -0.540133
v 0.206700 -0.756384 -0.499018
v 0.381932 -0.756384 -0.381932
v 0.499018 -0.756384 -0.206700
v 0.540133 -0.756384 0.000000
v 0.499018 -0.756384 0.206700
v -0.499018 -0.756384 0.206700
v -0.540133 -0.756384 0.000000
v -0.499018 -0.756384 -0.206700
v -0.381932 -0.756384 -0.381932
v -0.206700 -0.756384 -0.499018
v 0.381932 -0.756384 0.381932
v 0.206700 -0.756384 0.499018
v 0.000000 -0.756384 0.540134
v -0.206700 -0.756384 0.499018
v -0.381932 -0.756384 0.381932
v 0.000000 -0.756384 -0.540133
v 0.417777 -0.756384 -1.008604
v 1.091705 -0.756384 0.000000
v 1.008604 -0.756384 0.417778
v -1.091705 -0.756384 -0.000000
v -1.008604 -0.756384 -0.417778
v 0.000000 -0.756384 1.091705
v -0.417777 -0.756384 1.008604
v -0.000000 -0.756384 -1.091705
vn 0.1951 0.0000 -0.9808
vn 0.5556 0.0000 -0.8315
vn 0.8315 0.0000 -0.5556
vn 0.9808 0.0000 -0.1951
vn 0.9808 0.0000 0.1951
vn 0.8315 -0.0000 0.5556
vn 0.5556 -0.0000 0.8315
vn 0.1951 -0.0000 0.9808
vn -0.1951 -0.0000 0.9808
vn -0.5556 -0.0000 0.8315
vn -0.8315 -0.0000 0.5556
vn -0.9808 0.0000 0.1951
vn -0.9808 0.0000 -0.1951
vn -0.8315 0.0000 -0.5556
vn 0.0000 1.0000 0.0000
vn -0.5556 0.0000 -0.8315
vn -0.1951 0.0000 -0.9808
vn 0.0000 -1.0000 0.0000
vn 0.0582 0.9544 -0.2928
vn 0.7164 0.5075 -0.4787
vn 0.4787 0.5075 -0.7164
vn 0.5437 0.2059 -0.8137
vn 0.8137 0.2059 -0.5437
vn 0.8300 0.0594 -0.5546
vn 0.1659 0.9544 -0.2483
vn 0.8451 0.5075 -0.1681
vn 0.8451 0.5075 0.1681
vn 0.9598 0.2059 -0.1909
vn 0.9791 0.0594 -0.1947
vn 0.2483 0.9544 -0.1659
vn 0.9598 0.2059 0.1909
vn 0.9791 0.0594 0.1947
vn 0.2928 0.9544 -0.0582
vn 0.7164 0.5075 0.4787
vn 0.4787 0.5075 0.7164
vn 0.8137 0.2059 0.5437
vn 0.8300 0.0594 0.5546
vn 0.2928 0.9544 0.0582
vn 0.5546 0.0594 0.8300
vn 0.2483 0.9544 0.1659
vn 0.1681 0.5075 0.8451
vn 0.5437 0.2059 0.8137
vn 0.1909 0.2059 0.9598
vn 0.1947 0.0594 0.9791
vn 0.1659 0.9544 0.2483
vn -0.1681 0.5075 0.8451
vn -0.1947 0.0594 0.9791
vn 0.0582 0.9544 0.2928
vn -0.4787 0.5075 0.7164
vn -0.1909 0.2059 0.9598
vn -0.5437 0.2059 0.8137
vn -0.5546 0.0594 0.8300
vn -0.0582 0.9544 0.2928
vn -0.7164 0.5075 0.4787
vn -0.8300 0.0594 0.5546
vn -0.1659 0.9544 0.2483
vn -0.8451 0.5075 0.1681
vn -0.8137 0.2059 0.5437
vn -0.9598 0.2059 0.1909
vn -0.9791 0.0594 0.1947
vn -0.2483 0.9544 0.1659
vn -0.8451 0.5075 -0.1681
vn -0.2928 0.9544 0.0582
vn -0.7164 0.5075 -0.4787
vn -0.9598 0.2059 -0.1909
vn -0.9791 0.0594 -0.1947
vn -0.8137 0.2059 -0.5437
vn -0.8300 0.0594 -0.5546
vn -0.2928 0.9544 -0.0582
vn -0.4787 0.5075 -0.7164
vn -0.1681 0.5075 -0.8451
vn -0.5437 0.2059 -0.8137
vn -0.5546 0.0594 -0.8300
vn -0.2483 0.9544 -0.1659
vn -0.1909 0.2059 -0.9598
vn -0.1947 0.0594 -0.9791
vn -0.1659 0.9544 -0.2482
vn 0.1947 0.0594 -0.9791
vn -0.0582 0.9544 -0.2928
vn 0.5546 0.0594 -0.8300
vn 0.1909 0.2059 -0.9598
vn 0.1681 0.5075 -0.8451
vn 0.0000 0.0000 1.0000
vn -0.3827 0.0000 0.9239
vn -0.1001 -0.8583 0.5032
vn -0.9409 0.2822 -0.1872
vn -0.1872 0.2822 0.9409
vn 0.9409 0.2822 0.1872
vn 0.1872 0.2822 -0.9409
vn 0.9239 0.0000 0.3827
vn 0.5032 -0.8583 0.1001
vn 0.1001 -0.8583 -0.5032
vn 1.0000 0.0000 -0.0000
vn 0.0000 0.0000 -1.0000
vn -1.0000 0.0000 0.0000
vn -0.9239 -0.0000 -0.3827
vn -0.5032 -0.8583 -0.1001
vn 0.3827 0.0000 -0.9239
vn 0.1950 0.0277 -0.9804
vn 0.9804 0.0277 0.1950
vn -0.1950 0.0277 0.9804
vn -0.9804 0.0277 -0.1950
vn 0.5549 -0.0497 -0.8304
vn 0.8304 -0.0497 -0.5549
vn 0.9796 -0.0497 -0.1948
vn 0.8304 -0.0497 0.5549
vn 0.5549 -0.0497 0.8304
vn 0.1948 -0.0497 0.9796
vn -0.5549 -0.0497 0.8304
vn -0.8304 -0.0497 0.5549
vn -0.9796 -0.0497 0.1948
vn -0.8304 -0.0497 -0.5549
vn -0.5549 -0.0497 -0.8304
vn -0.1948 -0.0497 -0.9796
s off
f 82//1 2//1 4//1 83//1
f 83//2 4//2 6//2 84//2
f 84//3 6//3 8//3 85//3
f 85//4 8//4 10//4 86//4
f 86//5 10//5 12//5 87//5
f 87//6 12//6 48//6 93//6
f 93//7 48//7 52//7 94//7
f 94//8 52//8 56//8 95//8
f 95//9 56//9 61//9 96//9
f 96//10 61//10 65//10 97//10
f 97//11 65//11 19//11 88//11
f 88//12 19//12 21//12 89//12
f 89//13 21//13 23//13 90//13
f 90//14 23//14 25//14 91//14
f 4//15 2//15 27//15 25//15 23//15 21//15 19//15 65//15 61//15 56//15 52//15 48//15 12//15 10//15 8//15 6//15
f 91//16 25//16 27//16 92//16
f 92//17 27//17 2//17 82//17
f 1//18 3//18 5//18 7//18 9//18 11//18 13//18 14//18 15//18 16//18 17//18 18//18 20//18 22//18 24//18 26//18
f 28//19 57//19 30//19
f 34//20 33//20 36//20 37//20
f 31//21 30//21 33//21 34//21
f 31//22 34//22 35//22 32//22
f 35//23 34//23 37//23 38//23
f 6//24 35//24 38//24 8//24
f 30//25 57//25 33//25
f 37//26 36//26 39//26 40//26
f 40//27 39//27 42//27 43//27
f 37//28 40//28 41//28 38//28
f 8//29 38//29 41//29 10//29
f 33//30 57//30 36//30
f 41//31 40//31 43//31 44//31
f 10//32 41//32 44//32 12//32
f 36//33 57//33 39//33
f 43//34 42//34 45//34 46//34
f 46//35 45//35 49//35 50//35
f 44//36 43//36 46//36 47//36
f 12//37 44//37 47//37 48//37
f 39//38 57//38 42//38
f 48//39 47//39 51//39 52//39
f 42//40 57//40 45//40
f 50//41 49//41 53//41 54//41
f 47//42 46//42 50//42 51//42
f 51//43 50//43 54//43 55//43
f 51//44 55//44 56//44 52//44
f 45//45 57//45 49//45
f 54//46 53//46 58//46 59//46
f 56//47 55//47 60//47 61//47
f 49//48 57//48 53//48
f 59//49 58//49 62//49 63//49
f 55//50 54//50 59//50 60//50
f 60//51 59//51 63//51 64//51
f 60//52 64//52 65//52 61//52
f 53//53 57//53 58//53
f 63//54 62//54 66//54 67//54
f 65//55 64//55 68//55 19//55
f 58//56 57//56 62//56
f 67//57 66//57 69//57 70//57
f 64//58 63//58 67//58 68//58
f 68//59 67//59 70//59 71//59
f 19//60 68//60 71//60 21//60
f 62//61 57//61 66//61
f 70//62 69//62 72//62 73//62
f 66//63 57//63 69//63
f 73//64 72//64 75//64 76//64
f 71//65 70//65 73//65 74//65
f 21//66 71//66 74//66 23//66
f 74//67 73//67 76//67 77//67
f 23//68 74//68 77//68 25//68
f 69//69 57//69 72//69
f 76//70 75//70 78//70 79//70
f 79//71 78//71 28//71 81//71
f 76//72 79//72 80//72 77//72
f 25//73 77//73 80//73 27//73
f 72//74 57//74 75//74
f 80//75 79//75 81//75 29//75
f 27//76 80//76 29//76 2//76
f 75//77 57//77 78//77
f 2//78 29//78 32//78 4//78
f 78//79 57//79 28//79
f 4//80 32//80 35//80 6//80
f 29//81 81//81 31//81 32//81
f 28//82 30//82 31//82 81//82
f 123//17 92//17 82//17 129//17
f 122//16 91//16 92//16 123//16
f 121//14 90//14 91//14 122//14
f 86//83 87//83 104//83 101//83
f 119//12 88//12 89//12 120//12
f 128//11 97//11 88//11 119//11
f 127//10 96//10 97//10 128//10
f 89//83 90//83 110//83 107//83
f 125//8 94//8 95//8 126//8
f 124//7 93//7 94//7 125//7
f 118//6 87//6 93//6 124//6
f 118//84 11//84 103//84 132//84
f 116//4 85//4 86//4 117//4
f 115//3 84//3 85//3 116//3
f 114//2 83//2 84//2 115//2
f 3//85 1//85 98//85 99//85
f 133//86 107//86 110//86 134//86
f 135//87 111//87 112//87 136//87
f 131//88 101//88 104//88 132//88
f 137//89 113//89 100//89 130//89
f 120//83 89//83 107//83 133//83
f 114//90 3//90 99//90 130//90
f 22//91 20//91 108//91 109//91
f 16//92 15//92 105//92 106//92
f 126//93 95//93 111//93 135//93
f 117//94 86//94 101//94 131//94
f 129//95 82//95 113//95 137//95
f 95//83 96//83 112//83 111//83
f 127//96 16//96 106//96 136//96
f 11//97 9//97 102//97 103//97
f 121//98 22//98 109//98 134//98
f 82//83 83//83 100//83 113//83
f 90//98 121//98 134//98 110//98
f 96//96 127//96 136//96 112//96
f 1//95 129//95 137//95 98//95
f 9//94 117//94 131//94 102//94
f 15//93 126//93 135//93 105//93
f 83//90 114//90 130//90 100//90
f 20//83 120//83 133//83 108//83
f 98//99 137//99 130//99 99//99
f 102//100 131//100 132//100 103//100
f 105//101 135//101 136//101 106//101
f 108//102 133//102 134//102 109//102
f 3//103 114//103 115//103 5//103
f 5//104 115//104 116//104 7//104
f 7//105 116//105 117//105 9//105
f 87//84 118//84 132//84 104//84
f 11//106 118//106 124//106 13//106
f 13//107 124//107 125//107 14//107
f 14//108 125//108 126//108 15//108
f 16//109 127//109 128//109 17//109
f 17//110 128//110 119//110 18//110
f 18//111 119//111 120//111 20//111
f 22//112 121//112 122//112 24//112
f 24//113 122//113 123//113 26//113
f 26//114 123//114 129//114 1//114
